# xmcd CD database file
#
# Track frame offsets:
#	150
#	8763
#	20280
#	29548
#	38297
#	51496
#	60586
#	69929
#	82618
#	91550
#	102205
#	112372
#	123885
#	134232
#	146709
#	160835
#
# Disc length: 2264 seconds
#
# Revision: 0
# Processed by: cddbd v1.5PL3 Copyright (c) Steve Scherf et al.
# Submitted via: CDex 1.51
#
DISCID=c908d610
DTITLE=Duelling Banjos - Great Country Instrumentals
DYEAR=2003
DGENRE=Country
TTITLE0=Duelling Banjos
TTITLE1=Rocky Top
TTITLE2=Lonesome Steel Guitar Blues
TTITLE3=Yakety Yak
TTITLE4=Amazing Grace
TTITLE5=Dallas (Theme)
TTITLE6=Wabash Cannonball
TTITLE7=Tennessee Waltz
TTITLE8=Wheels
TTITLE9=Sleep Walker
TTITLE10=Red River Rock
TTITLE11=Last Date
TTITLE12=Mexican Hat Dance
TTITLE13=Orange Blossom Special
TTITLE14=Foggy Mountain Breakdown
TTITLE15=Daddy Sang Bass
EXTD=YEAR: 2003
EXTT0=
EXTT1=
EXTT2=
EXTT3=
EXTT4=
EXTT5=
EXTT6=
EXTT7=
EXTT8=
EXTT9=
EXTT10=
EXTT11=
EXTT12=
EXTT13=
EXTT14=
EXTT15=
PLAYORDER=
